<svg width="24" height="25" viewBox="0 0 24 25" fill="none" xmlns="http://www.w3.org/2000/svg">
    <path fill-rule="evenodd" clip-rule="evenodd"
        d="M20 6C20 6.66304 19.7366 7.29893 19.2678 7.76777C18.7989 8.23661 18.163 8.5 17.5 8.5C16.837 8.5 16.2011 8.23661 15.7322 7.76777C15.2634 7.29893 15 6.66304 15 6C15 5.33696 15.2634 4.70107 15.7322 4.23223C16.2011 3.76339 16.837 3.5 17.5 3.5C18.163 3.5 18.7989 3.76339 19.2678 4.23223C19.7366 4.70107 20 5.33696 20 6ZM17.5 7.5C17.697 7.5 17.892 7.4612 18.074 7.38582C18.256 7.31044 18.4214 7.19995 18.5607 7.06066C18.7 6.92137 18.8104 6.75601 18.8858 6.57403C18.9612 6.39204 19 6.19698 19 6C19 5.80302 18.9612 5.60796 18.8858 5.42597C18.8104 5.24399 18.7 5.07863 18.5607 4.93934C18.4214 4.80005 18.256 4.68956 18.074 4.61418C17.892 4.5388 17.697 4.5 17.5 4.5C17.1022 4.5 16.7207 4.65804 16.4393 4.93934C16.158 5.22064 16 5.60218 16 6C16 6.39782 16.158 6.77936 16.4393 7.06066C16.7207 7.34196 17.1022 7.5 17.5 7.5ZM17.5 16.5C17.6326 16.5 17.7598 16.5527 17.8536 16.6464C17.9473 16.7402 18 16.8674 18 17V18.5H19.5C19.6326 18.5 19.7598 18.5527 19.8536 18.6464C19.9473 18.7402 20 18.8674 20 19C20 19.1326 19.9473 19.2598 19.8536 19.3536C19.7598 19.4473 19.6326 19.5 19.5 19.5H18V21C18 21.1326 17.9473 21.2598 17.8536 21.3536C17.7598 21.4473 17.6326 21.5 17.5 21.5C17.3674 21.5 17.2402 21.4473 17.1465 21.3536C17.0527 21.2598 17 21.1326 17 21V19.5H15.5C15.3674 19.5 15.2402 19.4473 15.1465 19.3536C15.0527 19.2598 15 19.1326 15 19C15 18.8674 15.0527 18.7402 15.1465 18.6464C15.2402 18.5527 15.3674 18.5 15.5 18.5H17V17C17 16.8674 17.0527 16.7402 17.1465 16.6464C17.2402 16.5527 17.3674 16.5 17.5 16.5ZM8.83001 5.76L7.71301 9.67L3.78701 10.8C2.08501 11.29 2.09201 13.706 3.79701 14.186L7.71401 15.289L8.83001 19.195C9.31601 20.897 11.728 20.897 12.214 19.195L13.331 15.287L17.239 14.17C18.941 13.684 18.941 11.272 17.239 10.786L13.331 9.669L12.214 5.761C11.728 4.059 9.31601 4.058 8.83001 5.76ZM4.06901 13.224C3.33201 13.016 3.32901 11.974 4.06401 11.762L8.52201 10.478L9.79201 6.035C10.002 5.3 11.042 5.3 11.252 6.035L12.522 10.478L16.964 11.747C17.699 11.957 17.699 12.999 16.964 13.209L12.522 14.478L11.252 18.92C11.042 19.655 10.002 19.655 9.79201 18.92L8.52201 14.478L4.06901 13.224Z"
        fill="currentColor" />
</svg>