<svg width="24" height="25" viewBox="0 0 24 25" fill="none" xmlns="http://www.w3.org/2000/svg">
    <path
        d="M4.5 12.5C4.5 11.0166 4.93987 9.5666 5.76398 8.33323C6.58809 7.09986 7.75943 6.13856 9.12987 5.57091C10.5003 5.00325 12.0083 4.85472 13.4632 5.14411C14.918 5.4335 16.2544 6.14781 17.3033 7.1967C18.3522 8.2456 19.0665 9.58197 19.3559 11.0368C19.6453 12.4917 19.4968 13.9997 18.9291 15.3701C18.3614 16.7406 17.4001 17.9119 16.1668 18.736C14.9334 19.5601 13.4834 20 12 20H7.2C6.632 20 6.236 20 5.927 19.974C5.625 19.95 5.451 19.904 5.319 19.837C5.03651 19.6932 4.80685 19.4635 4.663 19.181C4.596 19.049 4.55 18.875 4.526 18.573C4.5 18.265 4.5 17.868 4.5 17.3V12.5Z"
        stroke="currentColor" />
</svg>