<svg width="24" height="25" viewBox="0 0 24 25" fill="none" xmlns="http://www.w3.org/2000/svg">
    <path fill-rule="evenodd" clip-rule="evenodd"
        d="M7.5 4.5C7.36739 4.5 7.24021 4.55268 7.14645 4.64645C7.05268 4.74021 7 4.86739 7 5V7.5H4.5C4.36739 7.5 4.24021 7.55268 4.14645 7.64645C4.05268 7.74021 4 7.86739 4 8C4 8.13261 4.05268 8.25979 4.14645 8.35355C4.24021 8.44732 4.36739 8.5 4.5 8.5H7V16.5H4.5C4.36739 16.5 4.24021 16.5527 4.14645 16.6464C4.05268 16.7402 4 16.8674 4 17C4 17.1326 4.05268 17.2598 4.14645 17.3536C4.24021 17.4473 4.36739 17.5 4.5 17.5H7V20C7 20.1326 7.05268 20.2598 7.14645 20.3536C7.24021 20.4473 7.36739 20.5 7.5 20.5C7.63261 20.5 7.75979 20.4473 7.85355 20.3536C7.94732 20.2598 8 20.1326 8 20V17.5H16V20C16 20.1326 16.0527 20.2598 16.1464 20.3536C16.2402 20.4473 16.3674 20.5 16.5 20.5C16.6326 20.5 16.7598 20.4473 16.8536 20.3536C16.9473 20.2598 17 20.1326 17 20V17.5H19.5C19.6326 17.5 19.7598 17.4473 19.8536 17.3536C19.9473 17.2598 20 17.1326 20 17C20 16.8674 19.9473 16.7402 19.8536 16.6464C19.7598 16.5527 19.6326 16.5 19.5 16.5H17V8.5H19.5C19.6326 8.5 19.7598 8.44732 19.8536 8.35355C19.9473 8.25979 20 8.13261 20 8C20 7.86739 19.9473 7.74021 19.8536 7.64645C19.7598 7.55268 19.6326 7.5 19.5 7.5H17V5C17 4.86739 16.9473 4.74021 16.8536 4.64645C16.7598 4.55268 16.6326 4.5 16.5 4.5C16.3674 4.5 16.2402 4.55268 16.1464 4.64645C16.0527 4.74021 16 4.86739 16 5V7.5H8V5C8 4.86739 7.94732 4.74021 7.85355 4.64645C7.75979 4.55268 7.63261 4.5 7.5 4.5ZM16 8.5H8V16.5H16V8.5Z"
        fill="currentColor" />
</svg>