<svg width="24" height="25" viewBox="0 0 24 25" fill="none" xmlns="http://www.w3.org/2000/svg">
    <path fill-rule="evenodd" clip-rule="evenodd"
        d="M18.174 15.402L18.356 14.823C18.852 13.243 18.526 11.44 16.793 9.707C16.363 9.276 15.683 8.837 14.794 8.413C13.917 7.993 12.89 7.613 11.812 7.273C9.78499 6.637 7.63799 6.169 6.07799 5.871L10.984 10.776C11.4032 10.5285 11.8982 10.4425 12.3763 10.5339C12.8544 10.6253 13.2827 10.8879 13.5811 11.2725C13.8794 11.6572 14.0272 12.1374 13.9968 12.6232C13.9664 13.109 13.7599 13.5671 13.4159 13.9115C13.072 14.2559 12.6142 14.4631 12.1284 14.4942C11.6427 14.5253 11.1622 14.3782 10.7772 14.0804C10.3921 13.7826 10.1289 13.3546 10.0368 12.8766C9.94474 12.3987 10.0301 11.9035 10.277 11.484L5.37199 6.578C5.66899 8.138 6.13799 10.285 6.77399 12.311C7.46899 14.524 8.30599 16.391 9.20699 17.293C10.941 19.026 12.744 19.352 14.324 18.855L14.903 18.674L15.331 19.102L16.728 20.5L20 17.227L18.603 15.83L18.174 15.402ZM19.31 15.122L20.707 16.52C20.8 16.6129 20.8737 16.7232 20.924 16.8446C20.9744 16.966 21.0003 17.0961 21.0003 17.2275C21.0003 17.3589 20.9744 17.489 20.924 17.6104C20.8737 17.7318 20.8 17.8421 20.707 17.935L17.435 21.206C17.2475 21.3935 16.9932 21.4988 16.728 21.4988C16.4628 21.4988 16.2085 21.3935 16.021 21.206L14.624 19.809C12.65 20.429 10.467 19.967 8.49999 17.999C6.31599 15.816 4.92699 9.657 4.33299 6.468C4.28807 6.24364 4.29923 6.01166 4.36548 5.79266C4.43173 5.57365 4.55102 5.37438 4.71276 5.21254C4.8745 5.05069 5.0737 4.93128 5.29267 4.8649C5.51163 4.79852 5.7436 4.78721 5.96799 4.832C9.15799 5.427 15.316 6.816 17.5 8.999C19.467 10.966 19.93 13.149 19.31 15.123V15.122ZM12.707 13.207C12.7999 13.1142 12.8736 13.0039 12.9239 12.8826C12.9742 12.7613 13.0001 12.6312 13.0002 12.4999C13.0002 12.3685 12.9744 12.2384 12.9242 12.1171C12.874 11.9957 12.8003 11.8854 12.7075 11.7925C12.6146 11.6996 12.5044 11.6259 12.3831 11.5756C12.2617 11.5253 12.1317 11.4993 12.0003 11.4993C11.869 11.4992 11.7389 11.5251 11.6176 11.5753C11.4962 11.6255 11.3859 11.6992 11.293 11.792C11.1053 11.9795 10.9999 12.2339 10.9998 12.4991C10.9997 12.7644 11.105 13.0189 11.2925 13.2065C11.48 13.3941 11.7344 13.4996 11.9996 13.4997C12.2649 13.4998 12.5193 13.3945 12.707 13.207Z"
        fill="currentColor" />
</svg>