<svg width="24" height="24" viewBox="0 0 24 24" fill="none" xmlns="http://www.w3.org/2000/svg">
    <path fill-rule="evenodd" clip-rule="evenodd"
        d="M7.015 5.44L6.7 6.7L5.44 7.015C4.935 7.141 4.935 7.859 5.44 7.985L6.7 8.3L7.015 9.56C7.141 10.065 7.859 10.065 7.985 9.56L8.3 8.3L9.56 7.985C10.065 7.859 10.065 7.141 9.56 7.015L8.3 6.7L7.985 5.44C7.859 4.935 7.141 4.935 7.015 5.44ZM17.854 8.353L15.854 10.353C15.7602 10.4469 15.633 10.4997 15.5004 10.4998C15.3677 10.4999 15.2404 10.4473 15.1465 10.3535C15.0526 10.2597 14.9998 10.1325 14.9997 9.99985C14.9996 9.86717 15.0522 9.73989 15.146 9.646L16.293 8.5H14.5C14.1022 8.5 13.7206 8.65803 13.4393 8.93934C13.158 9.22064 13 9.60217 13 10V14C13 14.663 12.7366 15.2989 12.2678 15.7678C11.7989 16.2366 11.163 16.5 10.5 16.5H10C9.97927 16.4999 9.95856 16.4986 9.938 16.496C9.81719 16.9679 9.52829 17.3795 9.12553 17.6536C8.72277 17.9276 8.23384 18.0452 7.75052 17.9843C7.2672 17.9234 6.82271 17.6882 6.50049 17.3229C6.17827 16.9575 6.00048 16.4871 6.00048 16C6.00048 15.5129 6.17827 15.0425 6.50049 14.6771C6.82271 14.3118 7.2672 14.0766 7.75052 14.0157C8.23384 13.9548 8.72277 14.0724 9.12553 14.3464C9.52829 14.6205 9.81719 15.0321 9.938 15.504C9.95856 15.5014 9.97927 15.5 10 15.5H10.5C10.8978 15.5 11.2794 15.342 11.5607 15.0607C11.842 14.7794 12 14.3978 12 14V10C12 9.33696 12.2634 8.70107 12.7322 8.23223C13.2011 7.76339 13.837 7.5 14.5 7.5H16.293L15.146 6.353C15.0522 6.25911 14.9996 6.13183 14.9997 5.99915C14.9998 5.86646 15.0526 5.73925 15.1465 5.6455C15.2404 5.55174 15.3677 5.49913 15.5004 5.49922C15.633 5.49931 15.7602 5.55211 15.854 5.646L17.854 7.646C17.9477 7.73976 18.0004 7.86692 18.0004 7.9995C18.0004 8.13208 17.9477 8.25923 17.854 8.353ZM9 16C9 16.2652 8.89464 16.5196 8.70711 16.7071C8.51957 16.8946 8.26522 17 8 17C7.73478 17 7.48043 16.8946 7.29289 16.7071C7.10536 16.5196 7 16.2652 7 16C7 15.7348 7.10536 15.4804 7.29289 15.2929C7.48043 15.1054 7.73478 15 8 15C8.26522 15 8.51957 15.1054 8.70711 15.2929C8.89464 15.4804 9 15.7348 9 16ZM15.9 15.9L16.18 14.78C16.263 14.447 16.737 14.447 16.82 14.78L17.1 15.9L18.22 16.18C18.553 16.263 18.553 16.737 18.22 16.82L17.1 17.1L16.82 18.22C16.737 18.553 16.263 18.553 16.18 18.22L15.9 17.1L14.78 16.82C14.447 16.737 14.447 16.263 14.78 16.18L15.9 15.9Z"
        fill="currentColor" />
</svg>