<svg width="24" height="24" viewBox="0 0 24 24" fill="none" xmlns="http://www.w3.org/2000/svg">
    <path fill-rule="evenodd" clip-rule="evenodd"
        d="M11 5.5C11 5.36739 11.0527 5.24021 11.1464 5.14645C11.2402 5.05268 11.3674 5 11.5 5H15.5C15.6326 5 15.7598 5.05268 15.8536 5.14645C15.9473 5.24021 16 5.36739 16 5.5C16 5.63261 15.9473 5.75979 15.8536 5.85355C15.7598 5.94732 15.6326 6 15.5 6H14V18H15.5C15.6326 18 15.7598 18.0527 15.8536 18.1464C15.9473 18.2402 16 18.3674 16 18.5C16 18.6326 15.9473 18.7598 15.8536 18.8536C15.7598 18.9473 15.6326 19 15.5 19H11.5C11.3674 19 11.2402 18.9473 11.1464 18.8536C11.0527 18.7598 11 18.6326 11 18.5C11 18.3674 11.0527 18.2402 11.1464 18.1464C11.2402 18.0527 11.3674 18 11.5 18H13V6H11.5C11.3674 6 11.2402 5.94732 11.1464 5.85355C11.0527 5.75979 11 5.63261 11 5.5ZM18 9.5C18 9.36739 17.9473 9.24021 17.8536 9.14645C17.7598 9.05268 17.6326 9 17.5 9H15.5C15.3674 9 15.2402 8.94732 15.1464 8.85355C15.0527 8.75979 15 8.63261 15 8.5C15 8.36739 15.0527 8.24021 15.1464 8.14645C15.2402 8.05268 15.3674 8 15.5 8H17.5C17.8978 8 18.2794 8.15804 18.5607 8.43934C18.842 8.72064 19 9.10218 19 9.5V14.5C19 14.8978 18.842 15.2794 18.5607 15.5607C18.2794 15.842 17.8978 16 17.5 16H15.5C15.3674 16 15.2402 15.9473 15.1464 15.8536C15.0527 15.7598 15 15.6326 15 15.5C15 15.3674 15.0527 15.2402 15.1464 15.1464C15.2402 15.0527 15.3674 15 15.5 15H17.5C17.6326 15 17.7598 14.9473 17.8536 14.8536C17.9473 14.7598 18 14.6326 18 14.5V9.5ZM6 11C6 10.8674 5.94732 10.7402 5.85355 10.6464C5.75979 10.5527 5.63261 10.5 5.5 10.5C5.36739 10.5 5.24021 10.5527 5.14645 10.6464C5.05268 10.7402 5 10.8674 5 11V14.5C5 14.8978 5.15804 15.2794 5.43934 15.5607C5.72064 15.842 6.10218 16 6.5 16H11.5C11.6326 16 11.7598 15.9473 11.8536 15.8536C11.9473 15.7598 12 15.6326 12 15.5C12 15.3674 11.9473 15.2402 11.8536 15.1464C11.7598 15.0527 11.6326 15 11.5 15H6.5C6.36739 15 6.24021 14.9473 6.14645 14.8536C6.05268 14.7598 6 14.6326 6 14.5V11ZM8.015 6.44L7.7 7.7L6.44 8.015C5.935 8.141 5.935 8.859 6.44 8.985L7.7 9.3L8.015 10.56C8.141 11.065 8.859 11.065 8.985 10.56L9.3 9.3L10.56 8.985C11.065 8.859 11.065 8.141 10.56 8.015L9.3 7.7L8.985 6.44C8.859 5.935 8.141 5.935 8.015 6.44Z"
        fill="currentColor" />
</svg>