<svg width="24" height="12" viewBox="0 0 24 12" fill="none" xmlns="http://www.w3.org/2000/svg">
    <path fill-rule="evenodd" clip-rule="evenodd"
        d="M6 7.5C6 7.36739 6.05268 7.24021 6.14645 7.14645C6.24021 7.05268 6.36739 7 6.5 7H18.5C18.6326 7 18.7598 7.05268 18.8536 7.14645C18.9473 7.24021 19 7.36739 19 7.5C19 7.63261 18.9473 7.75979 18.8536 7.85355C18.7598 7.94732 18.6326 8 18.5 8H6.5C6.36739 8 6.24021 7.94732 6.14645 7.85355C6.05268 7.75979 6 7.63261 6 7.5ZM6.5 10C6.36739 10 6.24021 10.0527 6.14645 10.1464C6.05268 10.2402 6 10.3674 6 10.5C6 10.6326 6.05268 10.7598 6.14645 10.8536C6.24021 10.9473 6.36739 11 6.5 11H10.5C10.6326 11 10.7598 10.9473 10.8536 10.8536C10.9473 10.7598 11 10.6326 11 10.5C11 10.3674 10.9473 10.2402 10.8536 10.1464C10.7598 10.0527 10.6326 10 10.5 10H6.5ZM14.5 10C14.3674 10 14.2402 10.0527 14.1464 10.1464C14.0527 10.2402 14 10.3674 14 10.5C14 10.6326 14.0527 10.7598 14.1464 10.8536C14.2402 10.9473 14.3674 11 14.5 11H18.5C18.6326 11 18.7598 10.9473 18.8536 10.8536C18.9473 10.7598 19 10.6326 19 10.5C19 10.3674 18.9473 10.2402 18.8536 10.1464C18.7598 10.0527 18.6326 10 18.5 10H14.5ZM6.5 13C6.36739 13 6.24021 13.0527 6.14645 13.1464C6.05268 13.2402 6 13.3674 6 13.5C6 13.6326 6.05268 13.7598 6.14645 13.8536C6.24021 13.9473 6.36739 14 6.5 14H8.5C8.63261 14 8.75979 13.9473 8.85355 13.8536C8.94732 13.7598 9 13.6326 9 13.5C9 13.3674 8.94732 13.2402 8.85355 13.1464C8.75979 13.0527 8.63261 13 8.5 13H6.5ZM18 13.5C18 13.3674 18.0527 13.2402 18.1464 13.1464C18.2402 13.0527 18.3674 13 18.5 13C18.6326 13 18.7598 13.0527 18.8536 13.1464C18.9473 13.2402 19 13.3674 19 13.5C19 13.6326 18.9473 13.7598 18.8536 13.8536C18.7598 13.9473 18.6326 14 18.5 14C18.3674 14 18.2402 13.9473 18.1464 13.8536C18.0527 13.7598 18 13.6326 18 13.5ZM16.5 13C16.3674 13 16.2402 13.0527 16.1464 13.1464C16.0527 13.2402 16 13.3674 16 13.5C16 13.6326 16.0527 13.7598 16.1464 13.8536C16.2402 13.9473 16.3674 14 16.5 14C16.6326 14 16.7598 13.9473 16.8536 13.8536C16.9473 13.7598 17 13.6326 17 13.5C17 13.3674 16.9473 13.2402 16.8536 13.1464C16.7598 13.0527 16.6326 13 16.5 13ZM11.7 12.7L12.015 11.44C12.141 10.935 12.859 10.935 12.985 11.44L13.3 12.7L14.56 13.015C15.065 13.141 15.065 13.859 14.56 13.985L13.3 14.3L12.985 15.56C12.859 16.065 12.141 16.065 12.015 15.56L11.7 14.3L10.44 13.985C9.935 13.859 9.935 13.141 10.44 13.015L11.7 12.7ZM6 16.5C6 16.3674 6.05268 16.2402 6.14645 16.1464C6.24021 16.0527 6.36739 16 6.5 16C6.63261 16 6.75979 16.0527 6.85355 16.1464C6.94732 16.2402 7 16.3674 7 16.5C7 16.6326 6.94732 16.7598 6.85355 16.8536C6.75979 16.9473 6.63261 17 6.5 17C6.36739 17 6.24021 16.9473 6.14645 16.8536C6.05268 16.7598 6 16.6326 6 16.5ZM8.5 16C8.36739 16 8.24021 16.0527 8.14645 16.1464C8.05268 16.2402 8 16.3674 8 16.5C8 16.6326 8.05268 16.7598 8.14645 16.8536C8.24021 16.9473 8.36739 17 8.5 17C8.63261 17 8.75979 16.9473 8.85355 16.8536C8.94732 16.7598 9 16.6326 9 16.5C9 16.3674 8.94732 16.2402 8.85355 16.1464C8.75979 16.0527 8.63261 16 8.5 16ZM10 16.5C10 16.3674 10.0527 16.2402 10.1464 16.1464C10.2402 16.0527 10.3674 16 10.5 16C10.6326 16 10.7598 16.0527 10.8536 16.1464C10.9473 16.2402 11 16.3674 11 16.5C11 16.6326 10.9473 16.7598 10.8536 16.8536C10.7598 16.9473 10.6326 17 10.5 17C10.3674 17 10.2402 16.9473 10.1464 16.8536C10.0527 16.7598 10 16.6326 10 16.5ZM14 16.5C14 16.3674 14.0527 16.2402 14.1464 16.1464C14.2402 16.0527 14.3674 16 14.5 16C14.6326 16 14.7598 16.0527 14.8536 16.1464C14.9473 16.2402 15 16.3674 15 16.5C15 16.6326 14.9473 16.7598 14.8536 16.8536C14.7598 16.9473 14.6326 17 14.5 17C14.3674 17 14.2402 16.9473 14.1464 16.8536C14.0527 16.7598 14 16.6326 14 16.5ZM16.5 16C16.3674 16 16.2402 16.0527 16.1464 16.1464C16.0527 16.2402 16 16.3674 16 16.5C16 16.6326 16.0527 16.7598 16.1464 16.8536C16.2402 16.9473 16.3674 17 16.5 17C16.6326 17 16.7598 16.9473 16.8536 16.8536C16.9473 16.7598 17 16.6326 17 16.5C17 16.3674 16.9473 16.2402 16.8536 16.1464C16.7598 16.0527 16.6326 16 16.5 16ZM18 16.5C18 16.3674 18.0527 16.2402 18.1464 16.1464C18.2402 16.0527 18.3674 16 18.5 16C18.6326 16 18.7598 16.0527 18.8536 16.1464C18.9473 16.2402 19 16.3674 19 16.5C19 16.6326 18.9473 16.7598 18.8536 16.8536C18.7598 16.9473 18.6326 17 18.5 17C18.3674 17 18.2402 16.9473 18.1464 16.8536C18.0527 16.7598 18 16.6326 18 16.5Z"
        fill="currentColor" />
</svg>