<svg xmlns="http://www.w3.org/2000/svg" width="32" height="32" viewBox="0 0 32 32" fill="none">
    <g opacity="0.5">
        <path fill-rule="evenodd" clip-rule="evenodd"
            d="M18.847 19.555C17.751 20.489 16.33 21.053 14.777 21.053C11.31 21.053 8.5 18.243 8.5 14.777C8.5 11.31 11.31 8.5 14.777 8.5C18.243 8.5 21.053 11.31 21.053 14.777C21.053 16.33 20.489 17.752 19.554 18.847L23.499 22.792L22.792 23.5L18.847 19.555ZM20.053 14.777C20.053 17.691 17.691 20.053 14.777 20.053C11.862 20.053 9.5 17.691 9.5 14.777C9.5 11.862 11.862 9.5 14.777 9.5C17.691 9.5 20.053 11.862 20.053 14.777Z"
            fill="currentColor" />
    </g>
</svg>